<?xml version="1.0" encoding="UTF-8"?>
<svg version="1.1" xmlns="http://www.w3.org/2000/svg" width="720" height="720">
<path d="M0 0 C3.1529854 1.09465665 6.03650035 2.47560989 9 4 C11.01739874 4.92420099 13.03835254 5.84067487 15.0625 6.75 C16.70850584 7.49962132 18.35440182 8.24948419 20 9 C20 9.66 20 10.32 20 11 C21.98 11.66 23.96 12.32 26 13 C26 13.66 26 14.32 26 15 C26.99 15 27.98 15 29 15 C29 15.66 29 16.32 29 17 C29.7425 17.28875 30.485 17.5775 31.25 17.875 C32.1575 18.24625 33.065 18.6175 34 19 C34.66 19.268125 35.32 19.53625 36 19.8125 C38 21 38 21 40.3125 23.375 C42.50120801 25.51280782 43.90264591 26.61399326 46.5 28 C49.93737793 29.83721924 52.24102914 32.24102914 55 35 C57.27872512 36.47615527 59.59636656 37.72748818 62 39 C62 39.66 62 40.32 62 41 C64.12953208 42.10420182 66.15701249 43.0523375 68.4375 43.8125 C71.66693921 45.30906939 73.48884933 47.48884933 76 50 C77.16579832 50.7236897 78.35485261 51.41103989 79.5625 52.0625 C82.68705407 53.8236123 84.50775993 55.50775993 87 58 C89.63222962 59.25436187 89.63222962 59.25436187 92 60 C92 60.99 92 61.98 92 63 C92.99 63 93.98 63 95 63 C95 63.66 95 64.32 95 65 C97.12953208 66.10420182 99.15701249 67.0523375 101.4375 67.8125 C104.66693921 69.30906939 106.48884933 71.48884933 109 74 C110.16579832 74.7236897 111.35485261 75.41103989 112.5625 76.0625 C115.72934675 77.84744998 117.47408367 79.47408367 120 82 C122.0994463 83.34413293 124.22775151 84.61225178 126.390625 85.8515625 C126.92171875 86.23054688 127.4528125 86.60953125 128 87 C128 87.66 128 88.32 128 89 C128.7425 89.28875 129.485 89.5775 130.25 89.875 C131.1575 90.24625 132.065 90.6175 133 91 C133.66 91.268125 134.32 91.53625 135 91.8125 C137 93 137 93 139.3125 95.375 C141.50368936 97.51523147 142.96030609 98.65575842 145.5625 100.0625 C148.68705407 101.8236123 150.50775993 103.50775993 153 106 C155.63222962 107.25436187 155.63222962 107.25436187 158 108 C158 108.99 158 109.98 158 111 C158.99 111 159.98 111 161 111 C161 111.66 161 112.32 161 113 C161.7425 113.28875 162.485 113.5775 163.25 113.875 C164.1575 114.24625 165.065 114.6175 166 115 C166.66 115.268125 167.32 115.53625 168 115.8125 C170 117 170 117 172.3125 119.375 C174.50368936 121.51523147 175.96030609 122.65575842 178.5625 124.0625 C181.68705407 125.8236123 183.50775993 127.50775993 186 130 C187.65816784 130.68753301 189.32459336 131.35561283 191 132 C192.8125 133.5 192.8125 133.5 194 135 C194 135.66 194 136.32 194 137 C194.84498047 137.37318359 194.84498047 137.37318359 195.70703125 137.75390625 C204.59607652 142.58457992 214.69035014 152.84333958 218.25 162.33203125 C218.4975 163.21246094 218.745 164.09289062 219 165 C219.66 165 220.32 165 221 165 C221.41572266 166.35544922 221.41572266 166.35544922 221.83984375 167.73828125 C222.20207031 168.91777344 222.56429688 170.09726562 222.9375 171.3125 C223.29714844 172.48425781 223.65679688 173.65601563 224.02734375 174.86328125 C224.66372279 176.91553977 225.32053379 178.96160137 226 181 C227.8576969 204.74667407 225.6200691 224.76303378 217 247 C216.2630786 249.00071459 215.53104524 251.00323862 214.8046875 253.0078125 C214.49515137 253.85746582 214.18561523 254.70711914 213.86669922 255.58251953 C212.09870764 260.51397097 210.43929694 265.46246071 209 270.5 C207.60518854 275.38184009 205.97570297 280.17882455 204.31640625 284.9765625 C202.57676224 290.06772405 201.05719341 295.20803347 199.5625 300.375 C197.93300679 305.99206566 196.14961396 311.48476127 194.08984375 316.9609375 C191.4853127 324.22375168 189.29458326 331.63467102 187 339 C181.21441443 357.5710154 181.21441443 357.5710154 178.875 363.8125 C176.94429772 368.96635815 175.48066811 374.21760943 174 379.515625 C171.9734894 386.57674788 169.57094744 393.49570705 167 400.375 C165.45482576 404.55783496 164.1893367 408.76509199 163 413.0625 C159.01339743 427.26284017 152.87446187 440.18913531 144 452 C143.29875 452.94875 142.5975 453.8975 141.875 454.875 C139.78828132 457.23994783 137.47763024 459.0580736 135 461 C134.67 461.66 134.34 462.32 134 463 C133.01 463 132.02 463 131 463 C131 463.66 131 464.32 131 465 C123.75875618 470.06887067 115.39918108 473.42365545 107 476 C106.16441055 476.33860046 105.32882111 476.67720093 104.46791077 477.02606201 C100.00489602 478.27946785 95.92254923 478.27962202 91.31030273 478.25878906 C90.35185455 478.2622937 89.39340637 478.26579834 88.40591431 478.26940918 C85.24839972 478.27818764 82.09111048 478.27239147 78.93359375 478.265625 C76.73454241 478.26697265 74.53549136 478.26891402 72.33644104 478.27142334 C67.73248451 478.27436925 63.12860569 478.27009364 58.5246582 478.26074219 C52.62430107 478.24934132 46.72412577 478.2559146 40.82377529 478.26788712 C36.28476084 478.27511434 31.7457895 478.27281392 27.20677376 478.26763153 C25.03106731 478.26629778 22.85535695 478.26793316 20.67965508 478.27259064 C17.63976546 478.27767069 14.60017042 478.26992493 11.56030273 478.25878906 C10.21282204 478.26486176 10.21282204 478.26486176 8.83811951 478.27105713 C4.42382779 478.24110652 1.02237164 478.03109885 -3 476 C-4.49585139 475.48772213 -5.99581672 474.98727064 -7.5 474.5 C-10.71897253 473.43944448 -13.87002943 472.3041544 -17 471 C-17.825 470.731875 -18.65 470.46375 -19.5 470.1875 C-22.01820326 468.99135345 -23.53190195 467.64096712 -25.41796875 465.6171875 C-27.51012997 463.4785338 -29.75421993 461.53878646 -32 459.5625 C-35.72055596 456.24611158 -38.89446189 452.88192264 -42 449 C-42.66 448.67 -43.32 448.34 -44 448 C-44.35613815 446.67257599 -44.68482518 445.33774202 -45 444 C-45.77910569 442.37935159 -46.59453786 440.77587079 -47.4375 439.1875 C-49.50916006 435.13373291 -50.93972612 431.41780783 -52 427 C-52.2663582 426.06692725 -52.2663582 426.06692725 -52.53809738 425.11500454 C-53.06525754 422.70119245 -53.13196723 420.50600738 -53.14044189 418.03492737 C-53.14615204 417.03537018 -53.15186218 416.03581299 -53.15774536 415.00596619 C-53.15942215 413.37021385 -53.15942215 413.37021385 -53.16113281 411.70141602 C-53.16609772 410.54818848 -53.17106262 409.39496094 -53.17617798 408.20678711 C-53.19079199 404.38915411 -53.19759956 400.57156263 -53.203125 396.75390625 C-53.20742283 394.77329612 -53.21172119 392.79268599 -53.2160995 390.81207603 C-53.22790275 385.29518598 -53.23544539 379.77830597 -53.2388947 374.26140457 C-53.24337767 367.13111746 -53.26094085 360.00102182 -53.2898953 352.87079293 C-53.3115161 347.35475223 -53.32159913 341.83876541 -53.32293582 336.3226828 C-53.32398327 333.02993768 -53.33132585 329.73741381 -53.34775543 326.44470406 C-53.36477488 322.77231368 -53.36294567 319.10039212 -53.35644531 315.42797852 C-53.3656601 314.33950119 -53.37487488 313.25102386 -53.3843689 312.12956238 C-53.33406765 303.07597457 -53.33406765 303.07597457 -50 299 C-49.38125 298.13375 -48.7625 297.2675 -48.125 296.375 C-43.96644301 291.72720101 -39.07440756 289.83396319 -33 289 C-27.21990678 288.88776518 -21.70325305 290.59864493 -17 294 C-16.67 294.99 -16.34 295.98 -16 297 C-15.01 297 -14.02 297 -13 297 C-9.53122089 302.50223957 -9.60104547 307.13790233 -9.69116211 313.4206543 C-9.69393661 314.45724686 -9.69671112 315.49383942 -9.6995697 316.56184387 C-9.71183693 319.98285136 -9.74492615 323.40334823 -9.77734375 326.82421875 C-9.78802627 329.21067146 -9.79708098 331.59713197 -9.80458069 333.9835968 C-9.82736254 340.26768111 -9.86638852 346.55154366 -9.9105835 352.83551025 C-9.98073675 362.87506088 -10.0362075 372.91459676 -10.07293892 382.95432472 C-10.08955102 386.4501171 -10.11912202 389.94563524 -10.14964294 393.44132996 C-10.16011383 395.60500845 -10.1700737 397.7686895 -10.17944336 399.93237305 C-10.19134705 400.8932785 -10.20325073 401.85418396 -10.21551514 402.84420776 C-10.23111157 411.84305359 -9.90593649 420.8412891 -4 428 C-3.566875 428.556875 -3.13375 429.11375 -2.6875 429.6875 C4.1338591 434.99300152 11.67354395 434.74186478 20 434 C22.78822522 433.29957627 24.51328201 432.50359692 27 431 C27.33 430.34 27.66 429.68 28 429 C28.99 429 29.98 429 31 429 C31.37125 428.2265625 31.37125 428.2265625 31.75 427.4375 C33 425 33 425 35.05569458 422.03097534 C37.80469445 417.19828428 37.48717528 412.49848241 37.35888672 407.06689453 C37.34530624 405.44844635 37.34530624 405.44844635 37.33145142 403.79730225 C37.30959216 401.4624473 37.27862304 399.12766357 37.23952866 396.7930336 C37.17904277 393.0933769 37.14554196 389.39435466 37.11941528 385.69430542 C37.04004053 375.1777113 36.90986723 364.66188912 36.76708984 354.14599609 C36.6815117 347.70596207 36.62541213 341.26618616 36.58649063 334.8257103 C36.56540123 332.37686275 36.53265676 329.92808602 36.48788071 327.47955704 C36.42526227 324.04999424 36.3999075 320.62194247 36.38232422 317.19189453 C36.35446838 316.18796661 36.32661255 315.1840387 36.2979126 314.14968872 C36.3169855 306.84748995 38.42994113 302.61971873 43 297 C43.721875 296.071875 44.44375 295.14375 45.1875 294.1875 C49.9105252 290.51403596 55.50599105 287.7803168 61.609375 288.1640625 C63.81450369 288.6468848 65.87800361 289.23519713 68 290 C68.99 290.33 69.98 290.66 71 291 C71 291.66 71 292.32 71 293 C71.598125 293.0825 72.19625 293.165 72.8125 293.25 C75.62932273 294.21576779 76.47799132 295.48868567 78 298 C78 298.66 78 299.32 78 300 C78.66 300 79.32 300 80 300 C80.3738763 301.30702211 80.72273656 302.62119795 81.0625 303.9375 C81.25972656 304.66839844 81.45695312 305.39929688 81.66015625 306.15234375 C81.96685998 308.72230949 81.86858159 310.54579348 81.53131104 313.07899475 C80.95940366 317.92849379 80.84535831 322.7046113 80.83886719 327.58374023 C80.83390228 328.49558075 80.82893738 329.40742126 80.82382202 330.34689331 C80.80933283 333.33413472 80.80242227 336.32132312 80.796875 339.30859375 C80.79404762 340.33595201 80.79122025 341.36331028 80.78830719 342.42180061 C80.77337182 347.85387551 80.76410547 353.28592421 80.75976562 358.71801758 C80.75427555 364.30732143 80.73021983 369.89638237 80.70179367 375.48561001 C80.68311429 379.80520825 80.67795897 384.12474841 80.67642975 388.44438362 C80.67341694 390.50432736 80.66543515 392.56427041 80.65224457 394.62417412 C80.63506551 397.51192352 80.63709262 400.39908456 80.64355469 403.28686523 C80.6343399 404.12509323 80.62512512 404.96332123 80.6156311 405.82695007 C80.66529 412.96112807 82.00840953 419.72810137 85.75 425.875 C88.60697315 428.57325242 91.23346427 430.74979681 95 432 C101.91564258 431.48773018 106.4078557 426.91128947 111 422 C113.39161453 418.76428623 115 416.13061484 115 412 C115.66 412 116.32 412 117 412 C117.33 408.7 117.66 405.4 118 402 C118.66 402 119.32 402 120 402 C120.103125 400.80375 120.20625 399.6075 120.3125 398.375 C120.78835895 394.41417401 122.14935893 391.54035683 124 388 C124 386.68 124 385.36 124 384 C124.66 384 125.32 384 126 384 C126.33 381.03 126.66 378.06 127 375 C127.66 375 128.32 375 129 375 C129.33 372.03 129.66 369.06 130 366 C130.66 366 131.32 366 132 366 C132.0825 364.88625 132.165 363.7725 132.25 362.625 C132.78585892 358.31548668 134.2072259 354.73937359 135.89453125 350.76171875 C137.52852138 346.67963033 138.7403181 342.48993272 140.00390625 338.28125 C141.5612564 333.15115538 143.286066 328.07947714 145 323 C145.87731225 320.39660478 146.75170492 317.79224513 147.625 315.1875 C148.02976562 313.98480469 148.43453125 312.78210938 148.8515625 311.54296875 C150.21121789 307.34838561 151.40968768 303.1201118 152.59228516 298.87280273 C153.22185862 296.62169732 153.86040422 294.37327607 154.5 292.125 C154.71269531 291.35414063 154.92539062 290.58328125 155.14453125 289.7890625 C155.70348531 287.8412962 156.3453705 285.91772872 157 284 C157.66 283.67 158.32 283.34 159 283 C159.46751788 280.64400765 159.46751788 280.64400765 159.625 277.9375 C159.73714844 276.55884766 159.73714844 276.55884766 159.8515625 275.15234375 C159.90054687 274.44207031 159.94953125 273.73179687 160 273 C160.66 273 161.32 273 162 273 C162.103125 271.80375 162.20625 270.6075 162.3125 269.375 C162.79518935 265.4155482 164.08295961 262.51457406 166 259 C166.59070014 257.05396726 166.59070014 257.05396726 167 255 C167.350625 253.80375 167.70125 252.6075 168.0625 251.375 C169.08921462 248.26262554 169.08921462 248.26262554 169 246 C169.66 246 170.32 246 171 246 C171.12955078 245.17822266 171.12955078 245.17822266 171.26171875 244.33984375 C172.97353968 234.68140455 176.23520197 225.4260926 179.8125 216.3125 C181.2249742 212.95892741 181.2249742 212.95892741 181 209 C181.66 209 182.32 209 183 209 C183.66504332 196.61534016 183.66504332 196.61534016 180 185 C179.34 184.67 178.68 184.34 178 184 C177.79310547 183.09314453 177.79310547 183.09314453 177.58203125 182.16796875 C176.85221581 179.4495287 175.67907687 178.27848916 173.6875 176.3125 C173.09324219 175.71050781 172.49898437 175.10851562 171.88671875 174.48828125 C170.13606456 172.8785759 170.13606456 172.8785759 168.08203125 172.60546875 C164.89246649 171.67792177 163.30164718 169.36074796 161 167 C158.45916281 164.93491194 155.82575602 163.0008612 153.1875 161.0625 C151.82682292 160.05338542 150.46614583 159.04427083 149.10546875 158.03515625 C148.09492432 157.29289795 148.09492432 157.29289795 147.06396484 156.53564453 C145.64554097 155.48029959 144.24016683 154.40725778 142.84619141 153.31982422 C142.15058105 152.77986816 141.4549707 152.23991211 140.73828125 151.68359375 C140.11606689 151.1930249 139.49385254 150.70245605 138.8527832 150.19702148 C136.88661317 148.92674455 135.25184616 148.55410111 133 148 C131.30727388 146.35980676 129.64537755 144.68768726 128 143 C125.47973731 140.95597424 122.86658302 139.0434585 120.25 137.125 C118.82239324 136.06841519 117.39530659 135.01112727 115.96875 133.953125 C115.28554688 133.44716797 114.60234375 132.94121094 113.8984375 132.41992188 C110.81350064 130.11256684 107.79895906 127.71836308 104.796875 125.3046875 C103.0530393 123.95835925 103.0530393 123.95835925 101.1328125 123.09375 C98.20083022 121.59016935 95.73915145 119.62718724 93.125 117.625 C89.1666557 114.59803083 85.15521343 111.7494415 81 109 C79.61534276 107.9923046 78.23902897 106.97294709 76.875 105.9375 C75.91207031 105.20853516 75.91207031 105.20853516 74.9296875 104.46484375 C74.29289062 103.98144531 73.65609375 103.49804688 73 103 C71.66697614 101.99958751 70.33364892 100.99957907 69 100 C68.13181641 99.34451172 68.13181641 99.34451172 67.24609375 98.67578125 C65.16917789 97.11024424 63.08565342 95.55388086 61 94 C59.58460938 92.94425781 59.58460938 92.94425781 58.140625 91.8671875 C57.16609375 91.14789063 56.1915625 90.42859375 55.1875 89.6875 C54.27355469 89.01074219 53.35960937 88.33398438 52.41796875 87.63671875 C50.02520899 85.85845168 50.02520899 85.85845168 47 85 C45.85020119 83.81638357 44.70144367 82.63173361 43.55859375 81.44140625 C41.13251794 79.19774216 38.37183124 77.53035428 35.6015625 75.7421875 C31.57355811 73.04475513 27.74739919 70.0883769 23.89453125 67.1484375 C20.99107987 64.99337912 18.01426923 62.99598985 15 61 C13.57345468 59.97190354 12.1554008 58.93181714 10.75 57.875 C10.08484375 57.37742188 9.4196875 56.87984375 8.734375 56.3671875 C7 55 7 55 5 53 C4.401875 52.896875 3.80375 52.79375 3.1875 52.6875 C1 52 1 52 -1.125 49.6875 C-7.78945026 43.4576878 -15.11878275 42.50977498 -23.9921875 42.79296875 C-27.38345144 43.02639341 -30.6589293 43.37840545 -34 44 C-34 44.66 -34 45.32 -34 46 C-35.093125 46.495 -36.18625 46.99 -37.3125 47.5 C-42.18570395 49.90608997 -46.37080009 53.1019477 -50.6796875 56.390625 C-53 58 -53 58 -55 58 C-55.33 58.99 -55.66 59.98 -56 61 C-57.85449219 62.03540039 -57.85449219 62.03540039 -60 63 C-61.13038941 63.78164873 -62.23983684 64.59431797 -63.328125 65.43359375 C-64.26833496 66.15131958 -64.26833496 66.15131958 -65.22753906 66.88354492 C-65.89495117 67.3963501 -66.56236328 67.90915527 -67.25 68.4375 C-72.8207961 72.67194536 -78.45966297 76.75864287 -84.25 80.6875 C-90.99097317 85.26605803 -97.52280227 90.05254404 -104 95 C-106.65960634 97.00958207 -109.32566557 99.01006514 -112 101 C-112.65097656 101.48726563 -113.30195313 101.97453125 -113.97265625 102.4765625 C-118.76571229 106 -118.76571229 106 -121 106 C-121.33 106.99 -121.66 107.98 -122 109 C-123.83691406 110.0222168 -123.83691406 110.0222168 -126 111 C-127.22439656 111.85171794 -128.42726556 112.73503267 -129.609375 113.64453125 C-130.28226563 114.15693359 -130.95515625 114.66933594 -131.6484375 115.19726562 C-133.0339945 116.26218723 -134.41941437 117.32728728 -135.8046875 118.39257812 C-139.88813954 121.50174646 -144.01335341 124.33073343 -148.44238281 126.9284668 C-150.16612376 127.92938922 -150.16612376 127.92938922 -151 130 C-151.99 130 -152.98 130 -154 130 C-154.33 130.99 -154.66 131.98 -155 133 C-156.32407669 133.68486725 -157.65909241 134.34870203 -159 135 C-159.598125 135.61875 -160.19625 136.2375 -160.8125 136.875 C-163.05162126 139.05014637 -165.35053794 140.38490849 -168.078125 141.87109375 C-171.6014738 143.94070311 -174.76169294 146.51729792 -178 149 C-184.65796345 154 -184.65796345 154 -187 154 C-187 154.66 -187 155.32 -187 156 C-188.64132616 157.04106974 -190.31588108 158.02967983 -192 159 C-197.10402632 162.51644111 -202.03827571 166.28692156 -207 170 C-207.99902344 170.74378906 -208.99804688 171.48757813 -210.02734375 172.25390625 C-218.19963177 178.53366441 -223.28885755 184.58036473 -225 195 C-225.25705461 205.95695272 -221.58271339 216.77163172 -218 227 C-216.55403014 231.25158304 -215.14340426 235.48543177 -213.9375 239.8125 C-213.14248798 242.86224409 -213.14248798 242.86224409 -212 245 C-210.87694597 247.24610806 -210.26341019 249.52414914 -209.58886719 251.93554688 C-208.50674081 255.72927018 -207.3116228 259.48790487 -206.125 263.25 C-205.85888916 264.09481934 -205.59277832 264.93963867 -205.31860352 265.81005859 C-203.95013642 270.12041939 -202.53297182 274.39211559 -200.9375 278.625 C-198.95100571 283.91682297 -197.41590873 289.31426066 -195.85522461 294.74267578 C-194.70146169 298.7213212 -193.46595704 302.62230719 -192 306.5 C-189.46568235 313.21697197 -187.53470564 320.11724134 -185.56933594 327.01757812 C-185.01182604 328.95882186 -184.43192304 330.89358987 -183.8515625 332.828125 C-183 336 -183 336 -183 339 C-182.34 339 -181.68 339 -181 339 C-180.71125 340.175625 -180.4225 341.35125 -180.125 342.5625 C-178.62733442 348.49118996 -176.94898618 354.18594882 -174.6875 359.875 C-172.37309645 365.78353611 -170.5448128 371.74039219 -168.80761719 377.8347168 C-167.40223065 382.73309753 -165.7713629 387.48730754 -163.96484375 392.25390625 C-162.82138635 395.50836194 -161.91236185 398.7986068 -161 402.125 C-159.45056303 407.68833274 -157.57180952 412.83476911 -155 418 C-154.52046875 419.04800781 -154.52046875 419.04800781 -154.03125 420.1171875 C-152.56309713 422.79767873 -150.41455027 424.16034265 -148 426 C-147.42378906 426.65613281 -146.84757812 427.31226563 -146.25390625 427.98828125 C-140.00258909 433.56787975 -129.13098648 434.43924231 -121 435 C-121.15847412 433.87625977 -121.31694824 432.75251953 -121.48022461 431.59472656 C-122.06546201 426.88987942 -122.22293754 422.22118356 -122.31640625 417.484375 C-122.33723267 416.57065628 -122.35805908 415.65693756 -122.3795166 414.7155304 C-122.44549429 411.72710248 -122.5044763 408.73859223 -122.5625 405.75 C-122.58367889 404.72808563 -122.60485779 403.70617126 -122.62667847 402.65328979 C-123.08296921 380.43540754 -123.10707945 358.22145728 -123 336 C-122.34 335.67 -121.68 335.34 -121 335 C-120.97090231 330.93751511 -120.95316826 326.87505714 -120.9375 322.8125 C-120.92912109 321.66201172 -120.92074219 320.51152344 -120.91210938 319.32617188 C-120.90888672 318.21435547 -120.90566406 317.10253906 -120.90234375 315.95703125 C-120.89710693 314.93585205 -120.89187012 313.91467285 -120.88647461 312.86254883 C-120.99480533 310.13098384 -121.38293132 307.65830626 -122 305 C-121.34 305 -120.68 305 -120 305 C-119.79697266 304.11248047 -119.79697266 304.11248047 -119.58984375 303.20703125 C-118.11922632 297.80889662 -116.59027506 294.79396059 -111.74609375 291.86328125 C-105.62347215 288.8362133 -98.03787121 289.57363211 -91.4375 290.5 C-85.03352191 293.29446317 -80.22508446 297.19437296 -77.40380859 303.65551758 C-75.19418911 310.6113938 -75.53801142 317.85002568 -75.5234375 325.0703125 C-75.50935695 326.65625734 -75.49390938 328.24219055 -75.47718811 329.82810974 C-75.44433764 333.18716913 -75.42019422 336.54612673 -75.40328979 339.90530396 C-75.37676488 345.1556901 -75.3312401 350.40579426 -75.28149414 355.65600586 C-75.26500932 357.41099529 -75.24854505 359.16598491 -75.23210144 360.92097473 C-75.21990602 362.21893447 -75.21990602 362.21893447 -75.20746422 363.54311562 C-75.18362399 366.15684113 -75.16171511 368.77057641 -75.14033508 371.38432312 C-75.0337365 384.16544683 -74.81785626 396.940461 -74.50628662 409.71841431 C-74.31860232 417.47850244 -74.15758184 425.23924829 -74 433 C-73.98455139 433.75180542 -73.96910278 434.50361084 -73.95318604 435.27819824 C-73.85895815 439.99786512 -73.79543406 444.71705808 -73.75 449.4375 C-73.7286499 450.52812744 -73.7072998 451.61875488 -73.68530273 452.74243164 C-73.65243682 460.09423741 -74.41900847 465.93071278 -79.3125 471.75 C-80.199375 472.4925 -81.08625 473.235 -82 474 C-82.79768799 474.69617432 -83.59537598 475.39234863 -84.41723633 476.10961914 C-89.12317689 479.18331299 -94.58920651 478.55069257 -100.01171875 478.49609375 C-101.75773125 478.4982766 -101.75773125 478.4982766 -103.53901672 478.50050354 C-105.99926253 478.49884607 -108.45951887 478.48730203 -110.91967773 478.46655273 C-114.6571948 478.43773368 -118.39328015 478.44592195 -122.13085938 478.45898438 C-124.52865265 478.45274213 -126.92644147 478.44434741 -129.32421875 478.43359375 C-130.42980637 478.43652939 -131.53539398 478.43946503 -132.67448425 478.44248962 C-142.97816216 478.31930108 -151.99377574 475.98342297 -161.125 471.25 C-161.81094238 470.89856934 -162.49688477 470.54713867 -163.20361328 470.18505859 C-182.74669849 459.9160304 -195.43227878 442.85391823 -202 422 C-202.46427639 420.41839913 -202.92286966 418.83511578 -203.375 417.25 C-204.68735056 412.81077337 -206.31775907 408.5804487 -208.1328125 404.32421875 C-209.03889748 401.89574773 -209.52336624 399.54345273 -210 397 C-210.6590841 395.33032028 -211.32650839 393.66392045 -212 392 C-212.67258667 389.66836622 -213.33847444 387.3347961 -214 385 C-214.97028017 381.98992629 -215.98630774 378.99568759 -217 376 C-217.7502557 373.75312024 -218.49817904 371.5054724 -219.24609375 369.2578125 C-219.75600253 367.73072816 -220.26911333 366.20470987 -220.78515625 364.6796875 C-225 352.18341709 -225 352.18341709 -225 348 C-225.66 347.67 -226.32 347.34 -227 347 C-227.5625 345.14453125 -227.5625 345.14453125 -228 342.8125 C-228.56951376 339.96945115 -229.20396753 337.3880974 -230.125 334.625 C-231 332 -231 332 -231 329 C-231.66 328.67 -232.32 328.34 -233 328 C-233.3911938 325.93734178 -233.50674519 323.90556733 -233.65625 321.8125 C-233.7696875 321.214375 -233.883125 320.61625 -234 320 C-234.66 319.67 -235.32 319.34 -236 319 C-236.3911938 316.93734178 -236.50674519 314.90556733 -236.65625 312.8125 C-236.7696875 312.214375 -236.883125 311.61625 -237 311 C-237.66 310.67 -238.32 310.34 -239 310 C-239.38912644 308.34547001 -239.71043807 306.67482619 -240 305 C-241.99046968 297.86981987 -244.34642155 290.98252103 -247.19140625 284.15234375 C-248.19659053 281.4767083 -248.5968576 278.82199681 -249 276 C-249.6492959 274.65812182 -250.31731862 273.32520503 -251 272 C-251.7013284 269.67684969 -252.36485174 267.34210921 -253 265 C-253.556875 263.1128125 -253.556875 263.1128125 -254.125 261.1875 C-255 258 -255 258 -255 256 C-255.66 256 -256.32 256 -257 256 C-257.185625 254.4221875 -257.185625 254.4221875 -257.375 252.8125 C-257.83346094 249.15499211 -257.83346094 249.15499211 -259 246.5 C-260 244 -260 244 -260.5 240.25 C-260.665 239.1775 -260.83 238.105 -261 237 C-261.66 236.67 -262.32 236.34 -263 236 C-263.59355614 233.35139573 -263.74209269 230.70802678 -264 228 C-264.66 228 -265.32 228 -266 228 C-266.1953125 226.046875 -266.390625 224.09375 -266.5859375 222.140625 C-266.89273924 219.97722731 -266.89273924 219.97722731 -267.99780273 218.1628418 C-269.12848505 215.72271642 -269.32549816 213.93223277 -269.44921875 211.25390625 C-269.51544434 209.88298828 -269.51544434 209.88298828 -269.58300781 208.484375 C-269.61749023 207.52015625 -269.65197266 206.5559375 -269.6875 205.5625 C-269.72584961 204.57636719 -269.76419922 203.59023438 -269.80371094 202.57421875 C-270.46646221 182.57356636 -270.46646221 182.57356636 -266 175 C-266 173.68 -266 172.36 -266 171 C-265.34 171 -264.68 171 -264 171 C-263.71125 170.0925 -263.4225 169.185 -263.125 168.25 C-262.23285794 165.6727007 -261.21188268 163.42376535 -260 161 C-260 160.34 -260 159.68 -260 159 C-258.35570171 157.31126121 -256.68615782 155.64694485 -255 154 C-254.443125 153.236875 -253.88625 152.47375 -253.3125 151.6875 C-252.879375 151.130625 -252.44625 150.57375 -252 150 C-251.34 150 -250.68 150 -250 150 C-249.80277344 149.28457031 -249.60554688 148.56914062 -249.40234375 147.83203125 C-247.55604217 144.10342778 -244.82760173 142.11166933 -241.5625 139.6875 C-240.93504883 139.20893555 -240.30759766 138.73037109 -239.66113281 138.23730469 C-237.78354172 136.8117086 -235.89441368 135.40313754 -234 134 C-233.00355469 133.25878906 -232.00710937 132.51757812 -230.98046875 131.75390625 C-225.69427772 127.87434116 -220.32495659 124.1257592 -214.8984375 120.4453125 C-212.88131798 119.12993513 -212.88131798 119.12993513 -212 117 C-210.59052054 116.1594585 -209.14711412 115.37511266 -207.6875 114.625 C-204.1884665 112.74599146 -201.76541673 110.85759728 -199 108 C-197.78782072 107.2629734 -196.55687413 106.55626341 -195.3125 105.875 C-191.95938281 104.38383627 -191.95938281 104.38383627 -191 102 C-189.42316309 101.12397949 -187.84563261 100.249195 -186.265625 99.37890625 C-182.40744192 97.0307362 -178.89428843 94.22300216 -175.3046875 91.48828125 C-171.37291535 88.50478768 -167.33976741 85.66893954 -163.30712891 82.82421875 C-160.26075425 80.66091248 -157.26715066 78.45208893 -154.328125 76.14453125 C-153.44241821 75.44928345 -153.44241821 75.44928345 -152.53881836 74.73999023 C-151.41196471 73.84899338 -150.29011164 72.9516249 -149.17407227 72.04711914 C-145.32601715 69 -145.32601715 69 -142 69 C-142 68.34 -142 67.68 -142 67 C-136.58823529 63 -136.58823529 63 -134 63 C-134 62.34 -134 61.68 -134 61 C-132.48828125 59.84375 -132.48828125 59.84375 -130.3125 58.5 C-125.52526097 55.42736639 -121.06748671 52.03601648 -116.60668945 48.515625 C-114.36045265 46.75641177 -112.13985102 45.08339089 -109.6875 43.62109375 C-105.51310804 41.10311023 -101.66303913 38.15262997 -97.75 35.25 C-96.94175781 34.65445313 -96.13351562 34.05890625 -95.30078125 33.4453125 C-91.22206489 30.43032537 -87.18723374 27.37346979 -83.203125 24.234375 C-80.23769458 21.91309493 -77.27807214 19.86501138 -74 18 C-72.38612126 16.88897744 -70.78204678 15.76359398 -69.1875 14.625 C-67.45966918 13.41475727 -65.73057266 12.20631881 -64 11 C-63.36191406 10.55269531 -62.72382813 10.10539063 -62.06640625 9.64453125 C-53.0295498 3.63939438 -43.09220944 -0.33746594 -32.328125 -1.67578125 C-21.0162344 -3.25109487 -11.31925987 -2.79990149 0 0 Z " fill="#C3FA23" transform="translate(396,124)"/>
<path d="M0 0 C2.875 2.4375 2.875 2.4375 5 5 C5.66515625 5.59683594 6.3303125 6.19367188 7.015625 6.80859375 C11.03943796 11.25221396 12.14369994 17.8061529 11.87890625 23.69140625 C10.85199588 29.49844809 8.61667532 34.74124474 6 40 C5.01 40 4.02 40 3 40 C2.67 40.99 2.34 41.98 2 43 C-0.1875 44.0625 -0.1875 44.0625 -3 45 C-3.89460938 45.34417969 -4.78921875 45.68835938 -5.7109375 46.04296875 C-9.42656887 47.1241204 -12.57213598 47.26582544 -16.4375 47.25 C-18.32275391 47.25773437 -18.32275391 47.25773437 -20.24609375 47.265625 C-26.13864664 46.84867016 -30.91607584 45.43501703 -35.8125 42.125 C-36.56144531 41.63257813 -37.31039063 41.14015625 -38.08203125 40.6328125 C-42.73114614 36.67491021 -43.92818228 29.78155689 -45 24 C-45.00475518 20.90437768 -44.58918156 18.03183013 -44 15 C-43.9175 14.0925 -43.835 13.185 -43.75 12.25 C-42.63888679 8.91666036 -40.6053928 7.31590471 -38 5 C-37.13375 4.13375 -36.2675 3.2675 -35.375 2.375 C-25.993538 -5.23094234 -10.51823882 -4.80180468 0 0 Z " fill="#C1F822" transform="translate(311,334)"/>
<path d="M0 0 C1 3 1 3 -0.3125 5.6875 C-0.869375 6.450625 -1.42625 7.21375 -2 8 C-2.66 8 -3.32 8 -4 8 C-3.67402832 8.70213623 -3.34805664 9.40427246 -3.01220703 10.12768555 C-1.90282157 13.27576078 -1.77055605 15.62921507 -1.8046875 18.95703125 C-1.81113281 20.06884766 -1.81757813 21.18066406 -1.82421875 22.32617188 C-1.84097656 23.47666016 -1.85773438 24.62714844 -1.875 25.8125 C-1.88402344 26.98232422 -1.89304687 28.15214844 -1.90234375 29.35742188 C-1.92586268 32.23849053 -1.95873148 35.11913989 -2 38 C-3.485 38.495 -3.485 38.495 -5 39 C-5.39530098 34.79331636 -5.76264001 30.58463887 -6.125 26.375 C-6.23714844 25.18519531 -6.34929687 23.99539063 -6.46484375 22.76953125 C-6.56152344 21.61582031 -6.65820312 20.46210938 -6.7578125 19.2734375 C-6.8520752 18.21560059 -6.94633789 17.15776367 -7.04345703 16.06787109 C-6.99529953 12.66816795 -6.19726485 10.16399894 -5 7 C-4.87625 6.278125 -4.7525 5.55625 -4.625 4.8125 C-3.75252568 2.28232448 -2.19939714 1.4189659 0 0 Z " fill="#A8DE13" transform="translate(278,421)"/>
<path d="" fill="#000D00" transform="translate(0,0)"/>
<path d="" fill="#071100" transform="translate(0,0)"/>
<path d="" fill="#071400" transform="translate(0,0)"/>
<path d="" fill="#001400" transform="translate(0,0)"/>
</svg>
