<svg xmlns="http://www.w3.org/2000/svg" width="720" height="721" fill="none"><path d="M0 0h720v721H0z" id="svg-layer-0" style="pointer-events: all;"/><path d="M650.063 89.563c4.894 3.63 4.998 12.623 6 18.312l.525 2.895c4.07 22.74 3.312 45.197-1.22 67.828-.383 2.503-.431 4.873-.368 7.402h-2l-.113 1.688c-.484 5.62-1.812 10.08-3.887 15.312v3h-2l-.25 3c-.53 3.885-2.029 6.893-3.91 10.3-.988 1.683-.988 1.683-.84 3.7h-2l-.312 2.625c-.722 3.542-1.96 6.218-3.688 9.375h-2l-.38 1.766c-1.032 3.719-3.04 6.89-4.933 10.234-.39.712-.782 1.423-1.185 2.156-2.16 3.84-4.297 6.78-7.502 9.844-1.288 2.099-1.288 2.099-2.25 4.25l-1.016 2.14L616 267h-3l-.75 2.875c-1.44 3.601-1.932 3.617-5.25 5.125a264 264 0 0 0-3 5l-2.125 1.25c-2.693 2.514-2.672 4.83-2.91 8.414.084 5.614 2.165 9.556 5.02 14.242 2.458 5.07 3.38 10.894 4.472 16.395L609 322l2 1c.57 2.53 1.036 5.006 1.438 7.563.685 4.354 1.46 8.406 3.093 12.515 4.272 10.822 3.772 24.258 4.594 35.735l.266 3.682c.918 13.613.378 26.704-.891 40.255q-.325 3.5-.642 7-.195 2.159-.4 4.315c-.313 3.437-.463 6.8-.382 10.245-.08 3.919-.964 5.258-3.06 8.432-1.938 4.308-2.065 9.174-2.524 13.832-.438 3.05-.922 4.841-2.492 7.426-2.382 4.268-3.575 8.135-4.527 12.875-.558 2.505-1.418 4.788-2.473 7.125h-2l-.516 2.414c-1.39 6.077-2.821 10.48-6.484 15.586a160 160 0 0 0-2.973 7.926L590 522l-3 1-.25 2.75c-.882 3.82-2.033 4.533-4.75 7.25-1.504 2.932-2.772 5.943-4 9h-2l-.875 1.75L572 550h-2v4h-3l-.262 1.691c-.958 2.997-2.544 4.83-4.55 7.246l-2.083 2.528L558 568l-2.016 2.598c-1.848 2.237-3.705 4.04-5.922 5.902-4.355 3.736-8.346 7.624-12.062 12-4.32 5.069-8.01 8.505-14 11.5a141 141 0 0 0-5 5c-3.366 3.293-6.218 6.042-10.875 7.188L505 613l-1 3c-1.594 1.098-1.594 1.098-3.5 2.063-2.83 1.361-2.83 1.361-4.5 3.937-2.215 1.09-4.483 1.981-6.773 2.902-2.252.953-2.252.953-3.672 2.602-2.732 2.629-6.415 3.29-9.961 4.433-2.63 1.077-3.64 2.098-5.594 4.063-2.305.844-2.305.844-4.875 1.5-2.874.795-5.058 1.46-7.625 3-3.188 1.913-6.427 2.73-9.988 3.742-5.687 1.607-5.687 1.607-10.512 4.758-1.995.326-3.996.61-6 .875-3.945.578-7.63 1.192-11.375 2.563-5.224 1.908-10.627 2.844-16.074 3.867a100 100 0 0 0-7.863 1.883c-3.116.618-6.06.92-9.235.933l-2.49.013A692 692 0 0 1 373 659l-1 2h-32v-2c-.998.07-1.995.14-3.023.21-13.355.611-25.389-2.286-38.268-5.573a61 61 0 0 0-6.729-1.203c-2.843-.414-4.488-1.105-6.98-2.434a92 92 0 0 0-5.25-1.125l-2.703-.508L275 648v-2l-2.625.188c-3.885-.216-5.962-1.377-9.375-3.188-2.316-.772-4.635-1.385-7-2v-2c-.847-.095-1.694-.19-2.566-.29-3.9-.807-6.847-2.239-10.371-4.085-4.632-2.41-9.247-4.62-14.063-6.625v-2l-1.625-.375c-7.804-2.054-7.804-2.054-10.375-4.625l1-2-3.437-.812L211 617l-1-3a100 100 0 0 0-6-2 199 199 0 0 1-6-3v-3l-2.75-.687c-3.77-1.523-4.837-3.122-7.25-6.313l-2.75-1.625L183 596v-3l-1.75-.25c-2.904-.968-4.203-2.504-6.25-4.75-2.222-2.31-4.593-4.334-7.062-6.375-3.155-2.712-4.545-4.678-5.938-8.625a280 280 0 0 0-4-1c-3-4.179-3-4.179-3-7l-1.875-.625c-2.972-1.923-3.255-4.04-4.125-7.375h-4l-1.312-3.375c-1.387-3.8-1.387-3.8-4.688-5.625v-3l-2-1c-3-5.423-3-5.423-3-8l-3 1-.937-3.312A170 170 0 0 0 128 527h-2c-5-10-5-10-6.074-12.164a149 149 0 0 0-2.364-4.461c-1.672-3.614-2.713-7.165-3.718-11.008-.73-2.424-.73-2.424-2.348-4.351-1.754-2.363-2.263-4.286-2.933-7.141-.911-3.6-1.937-6.918-3.438-10.312-2.563-6.077-3.948-12.472-5.462-18.871l-.612-2.57-.542-2.331c-.354-1.798-.354-1.798-1.509-2.791-.379-2.73-.708-5.448-1-8.187q-.248-2.273-.5-4.543l-.219-2.044c-.26-2.288-.26-2.288-.804-4.762-.696-5.051-.62-10.059-.61-15.151l-.003-3.439q0-3.6.006-7.202.005-5.447-.007-10.895c-.01-29.13-.01-29.13 2.512-41.902l.39-2.001c1.035-5.192 2.293-10.314 3.684-15.42.697-2.685.697-2.685.551-6.454h2l.25-2.687c1.42-9.836 5.188-18.762 9.89-27.41 3.032-6.054 3.311-11.193 2.86-17.903l-2-1-.812-1.75c-1.574-2.98-3.782-4.902-6.188-7.25-2.096-2.466-3.907-4.843-5.562-7.625-1.271-2.344-1.271-2.344-2.899-3.734-1.832-1.954-2.605-3.789-3.602-6.266-1.184-3.388-1.184-3.388-3.937-5.375l-1-5-2-1c-.625-3.062-.625-3.062-1-6h-2q-1.004-2.685-2-5.375l-1.125-3.023C81 225 81 225 81 223h-2l-.61-2.108-2.765-9.517-.96-3.316-.938-3.223-.857-2.952a134 134 0 0 0-1.93-5.888c-.933-2.973-1.393-5.676-1.721-8.77l-.364-3.25-.355-3.351c-.836-8.533-.836-8.533-2.555-16.914-.999-3.923-1.385-7.687-1.57-11.711l-.117-1.941A259 259 0 0 1 64 143l-.1-3.518c-.143-9.38.55-18.406 1.962-27.678.332-2.224.627-4.45.921-6.679q.315-2.138.635-4.273l.555-3.85C69 94 69 94 71.423 92.494 74 92 74 92 76.813 93.25L79 95v2h2a178 178 0 0 1 4 4 313 313 0 0 0 4.43 3.707c1.549 1.276 3.06 2.597 4.57 3.918 2.89 2.289 5.65 3.86 9 5.375v2l2.125.75c3.27 1.422 6.016 3.122 8.875 5.25v2l3.313.313c3.672.684 4.44.966 6.687 3.687h2v2l3.188.125c5.346.644 9.758 3.056 14.554 5.387 3.62 1.653 7.188 2.78 11.04 3.75 2.218.738 2.218.738 4.534 2.226 3.342 1.883 6.348 2.374 10.121 3.012 3.88.658 7.038 1.232 10.547 3.027 3.58 1.748 6.922 2.175 10.828 2.536 6.772.736 13.406 1.495 19.801 3.933 4.458 1.321 8.83 1.678 13.45 2.066 10.27.906 10.27.906 14.937 1.938 7.64.804 13.13-1.826 20-5 4.253-1.935 8.345-3.362 12.918-4.402 2.248-.646 4.175-1.56 6.27-2.598 4.815-2.262 9.577-2.82 14.816-3.504 3.64-.603 6.622-2.024 9.996-3.496 8.251-1.961 16.804-2.544 25.233-3.303l2.52-.232 2.26-.2c2.193-.23 2.193-.23 4.987-1.265 14.586-2.396 29.923-1.895 44.309 1.277 3.786.742 7.403 1.036 11.253 1.223 8.775.464 17.81 1.504 25.934 5.008 4.606 1.961 9.2 2.738 14.102 3.648 3.487.865 6.219 2.205 9.402 3.844q2.698.796 5.438 1.438c3.412.877 6.302 1.79 9.312 3.625 7.254 4.324 13.939 4.195 22.188 4.062l3.228-.027q3.918-.036 7.834-.098v-2l3.797.18c5.78-.003 10.93-1.471 16.453-3.055 7.508-2.072 14.768-3.843 22.52-4.703 2.426-.242 2.426-.242 4.23-2.422 3.125-.125 3.125-.125 6 0l1-2 3.938-.312c4.892-.42 8.304-2.171 12.574-4.489 3.127-1.507 6.144-2.108 9.535-2.742 2.68-.627 4.648-1.98 6.953-3.457 3.271-1.392 6.562-2.722 10.059-3.398 2.355-.73 3.236-1.853 4.941-3.602 2.05-1.027 2.05-1.027 4.313-1.937 3.906-1.669 7.195-3.619 10.687-6.063q2.62-1.664 5.25-3.312c4.6-2.917 9.08-5.964 13.516-9.122a133 133 0 0 1 5.797-3.816c2.707-1.583 2.707-1.583 3.437-4.75a187 187 0 0 1 6-4l1.688-1.687c2.023-2.024 3.627-2.5 6.375-1.75" id="svg-layer-1" style="pointer-events: all;"/><path fill="#FCFCFC" d="M650.063 89.563c4.894 3.63 4.998 12.623 6 18.312l.525 2.895c4.07 22.74 3.312 45.197-1.22 67.828-.383 2.503-.431 4.873-.368 7.402h-2l-.113 1.688c-.484 5.62-1.812 10.08-3.887 15.312v3h-2l-.25 3c-.53 3.885-2.029 6.893-3.91 10.3-.988 1.683-.988 1.683-.84 3.7h-2l-.312 2.625c-.722 3.542-1.96 6.218-3.688 9.375h-2l-.38 1.766c-1.032 3.719-3.04 6.89-4.933 10.234-.39.712-.782 1.423-1.185 2.156-2.16 3.84-4.297 6.78-7.502 9.844-1.288 2.099-1.288 2.099-2.25 4.25l-1.016 2.14L616 267h-3l-.75 2.875c-1.44 3.601-1.932 3.617-5.25 5.125a264 264 0 0 0-3 5l-2.125 1.25c-2.693 2.514-2.672 4.83-2.91 8.414.084 5.614 2.165 9.556 5.02 14.242 2.458 5.07 3.38 10.894 4.472 16.395L609 322l2 1c.57 2.53 1.036 5.006 1.438 7.563.685 4.354 1.46 8.406 3.093 12.515 4.272 10.822 3.772 24.258 4.594 35.735l.266 3.682c.918 13.613.378 26.704-.891 40.255q-.325 3.5-.642 7-.195 2.159-.4 4.315c-.313 3.437-.463 6.8-.382 10.245-.08 3.919-.964 5.258-3.06 8.432-1.938 4.308-2.065 9.174-2.524 13.832-.438 3.05-.922 4.841-2.492 7.426-2.382 4.268-3.575 8.135-4.527 12.875-.558 2.505-1.418 4.788-2.473 7.125h-2l-.516 2.414c-1.39 6.077-2.821 10.48-6.484 15.586a160 160 0 0 0-2.973 7.926L590 522l-3 1-.25 2.75c-.882 3.82-2.033 4.533-4.75 7.25-1.504 2.932-2.772 5.943-4 9h-2l-.875 1.75L572 550h-2v4h-3l-.262 1.691c-.958 2.997-2.544 4.83-4.55 7.246l-2.083 2.528L558 568l-2.016 2.598c-1.848 2.237-3.705 4.04-5.922 5.902-4.355 3.736-8.346 7.624-12.062 12-4.32 5.069-8.01 8.505-14 11.5a141 141 0 0 0-5 5c-3.366 3.293-6.218 6.042-10.875 7.188L505 613l-1 3c-1.594 1.098-1.594 1.098-3.5 2.063-2.83 1.361-2.83 1.361-4.5 3.937-2.215 1.09-4.483 1.981-6.773 2.902-2.252.953-2.252.953-3.672 2.602-2.732 2.629-6.415 3.29-9.961 4.433-2.63 1.077-3.64 2.098-5.594 4.063-2.305.844-2.305.844-4.875 1.5-2.874.795-5.058 1.46-7.625 3-3.188 1.913-6.427 2.73-9.988 3.742-5.687 1.607-5.687 1.607-10.512 4.758-1.995.326-3.996.61-6 .875-3.945.578-7.63 1.192-11.375 2.563-5.224 1.908-10.627 2.844-16.074 3.867a100 100 0 0 0-7.863 1.883c-3.116.618-6.06.92-9.235.933l-2.49.013A692 692 0 0 1 373 659l-1 2h-32v-2c-.998.07-1.995.14-3.023.21-13.355.611-25.389-2.286-38.268-5.573a61 61 0 0 0-6.729-1.203c-2.843-.414-4.488-1.105-6.98-2.434a92 92 0 0 0-5.25-1.125l-2.703-.508L275 648v-2l-2.625.188c-3.885-.216-5.962-1.377-9.375-3.188-2.316-.772-4.635-1.385-7-2v-2c-.847-.095-1.694-.19-2.566-.29-3.9-.807-6.847-2.239-10.371-4.085-4.632-2.41-9.247-4.62-14.063-6.625v-2l-1.625-.375c-7.804-2.054-7.804-2.054-10.375-4.625l1-2-3.437-.812L211 617l-1-3a100 100 0 0 0-6-2 199 199 0 0 1-6-3v-3l-2.75-.687c-3.77-1.523-4.837-3.122-7.25-6.313l-2.75-1.625L183 596v-3l-1.75-.25c-2.904-.968-4.203-2.504-6.25-4.75-2.222-2.31-4.593-4.334-7.062-6.375-3.155-2.712-4.545-4.678-5.938-8.625a280 280 0 0 0-4-1c-3-4.179-3-4.179-3-7l-1.875-.625c-2.972-1.923-3.255-4.04-4.125-7.375h-4l-1.312-3.375c-1.387-3.8-1.387-3.8-4.688-5.625v-3l-2-1c-3-5.423-3-5.423-3-8l-3 1-.937-3.312A170 170 0 0 0 128 527h-2c-5-10-5-10-6.074-12.164a149 149 0 0 0-2.364-4.461c-1.672-3.614-2.713-7.165-3.718-11.008-.73-2.424-.73-2.424-2.348-4.351-1.754-2.363-2.263-4.286-2.933-7.141-.911-3.6-1.937-6.918-3.438-10.312-2.563-6.077-3.948-12.472-5.462-18.871l-.612-2.57-.542-2.331c-.354-1.798-.354-1.798-1.509-2.791-.379-2.73-.708-5.448-1-8.187q-.248-2.273-.5-4.543l-.219-2.044c-.26-2.288-.26-2.288-.804-4.762-.696-5.051-.62-10.059-.61-15.151l-.003-3.439q0-3.6.006-7.202.005-5.447-.007-10.895c-.01-29.13-.01-29.13 2.512-41.902l.39-2.001c1.035-5.192 2.293-10.314 3.684-15.42.697-2.685.697-2.685.551-6.454h2l.25-2.687c1.42-9.836 5.188-18.762 9.89-27.41 3.032-6.054 3.311-11.193 2.86-17.903l-2-1-.812-1.75c-1.574-2.98-3.782-4.902-6.188-7.25-2.096-2.466-3.907-4.843-5.562-7.625-1.271-2.344-1.271-2.344-2.899-3.734-1.832-1.954-2.605-3.789-3.602-6.266-1.184-3.388-1.184-3.388-3.937-5.375l-1-5-2-1c-.625-3.062-.625-3.062-1-6h-2q-1.004-2.685-2-5.375l-1.125-3.023C81 225 81 225 81 223h-2l-.61-2.108-2.765-9.517-.96-3.316-.938-3.223-.857-2.952a134 134 0 0 0-1.93-5.888c-.933-2.973-1.393-5.676-1.721-8.77l-.364-3.25-.355-3.351c-.836-8.533-.836-8.533-2.555-16.914-.999-3.923-1.385-7.687-1.57-11.711l-.117-1.941A259 259 0 0 1 64 143l-.1-3.518c-.143-9.38.55-18.406 1.962-27.678.332-2.224.627-4.45.921-6.679q.315-2.138.635-4.273l.555-3.85C69 94 69 94 71.423 92.494 74 92 74 92 76.813 93.25L79 95v2h2a178 178 0 0 1 4 4 313 313 0 0 0 4.43 3.707c1.549 1.276 3.06 2.597 4.57 3.918 2.89 2.289 5.65 3.86 9 5.375v2l2.125.75c3.27 1.422 6.016 3.122 8.875 5.25v2l3.313.313c3.672.684 4.44.966 6.687 3.687h2v2l3.188.125c5.346.644 9.758 3.056 14.554 5.387 3.62 1.653 7.188 2.78 11.04 3.75 2.218.738 2.218.738 4.534 2.226 3.342 1.883 6.348 2.374 10.121 3.012 3.88.658 7.038 1.232 10.547 3.027 3.58 1.748 6.922 2.175 10.828 2.536 6.772.736 13.406 1.495 19.801 3.933 4.458 1.321 8.83 1.678 13.45 2.066 10.27.906 10.27.906 14.937 1.938 7.64.804 13.13-1.826 20-5 4.253-1.935 8.345-3.362 12.918-4.402 2.248-.646 4.175-1.56 6.27-2.598 4.815-2.262 9.577-2.82 14.816-3.504 3.64-.603 6.622-2.024 9.996-3.496 8.251-1.961 16.804-2.544 25.233-3.303l2.52-.232 2.26-.2c2.193-.23 2.193-.23 4.987-1.265 14.586-2.396 29.923-1.895 44.309 1.277 3.786.742 7.403 1.036 11.253 1.223 8.775.464 17.81 1.504 25.934 5.008 4.606 1.961 9.2 2.738 14.102 3.648 3.487.865 6.219 2.205 9.402 3.844q2.698.796 5.438 1.438c3.412.877 6.302 1.79 9.312 3.625 7.254 4.324 13.939 4.195 22.188 4.062l3.228-.027q3.918-.036 7.834-.098v-2l3.797.18c5.78-.003 10.93-1.471 16.453-3.055 7.508-2.072 14.768-3.843 22.52-4.703 2.426-.242 2.426-.242 4.23-2.422 3.125-.125 3.125-.125 6 0l1-2 3.938-.312c4.892-.42 8.304-2.171 12.574-4.489 3.127-1.507 6.144-2.108 9.535-2.742 2.68-.627 4.648-1.98 6.953-3.457 3.271-1.392 6.562-2.722 10.059-3.398 2.355-.73 3.236-1.853 4.941-3.602 2.05-1.027 2.05-1.027 4.313-1.937 3.906-1.669 7.195-3.619 10.687-6.063q2.62-1.664 5.25-3.312c4.6-2.917 9.08-5.964 13.516-9.122a133 133 0 0 1 5.797-3.816c2.707-1.583 2.707-1.583 3.437-4.75a187 187 0 0 1 6-4l1.688-1.687c2.023-2.024 3.627-2.5 6.375-1.75m-339.375 67.875-3.942.8L303 159q-4.023.79-8.047 1.57c-2.152.438-2.152.438-4.953 1.43-2.05.52-4.104 1.01-6.16 1.5-1.915.456-1.915.456-3.84 1.5v2l-2.676-.14c-3.509.148-5.403.829-8.512 2.39-6.437 3.1-13.04 5.493-19.812 7.75v3l-2.062-.187c-6.023.384-9.869 2.982-13.938 7.187q-2.491 1.021-5 2a524 524 0 0 0-5 4 141 141 0 0 1-3.75 2.125c-3.293 1.502-3.293 1.502-4.25 3.875l-2.375.875c-3.022 1.295-3.73 2.518-5.625 5.125l-2.562 1.438c-2.914 1.867-3.47 3.305-4.438 6.562l-2.312-.25c-2.808-.033-2.808-.033-4.5 2.125-1.35 2.01-1.35 2.01-1.188 4.125l-1.875.188L188 220l-1 2.5-1 2.5-2 .438-2 .562c-1.305 2.996-1.305 2.996-2 6h-3l-.187 1.875L176 236l-2.312.875c-3.665 1.534-4.775 3.724-6.688 7.125v2l-1.867.25c-2.267.555-2.267.555-3.328 2.563l-.93 2.187c-1.688 3.907-1.688 3.907-3.875 5a129 129 0 0 0-2 7h-2c-2.398 2.637-2.398 2.637-3 6h-2l-.805 1.61L144 277l-1.031 2.117C142 281 142 281 140.375 283.375c-1.62 3.093-1.615 5.182-1.375 8.625l-3 1c-2.154 3.646-3.2 6.884-4 11l-2 2c-2.923 5.509-3.379 9.813-3 16l-3 1c-2.546 5.092-3.144 10.701-3.437 16.313-.258 4.616-.991 8.445-2.5 12.812-1.731 5.198-2.635 10.12-3.176 15.54l-.254 2.495c-.799 8.511-.936 16.995-.894 25.54.011 2.563 0 5.127-.012 7.69-.011 12.67 1.034 24.905 3.835 37.298.25 1.117.498 2.235.754 3.386.382 1.632.777 3.26 1.223 4.875.681 3.03.935 6.09 1.273 9.176.681 5.586 1.881 10.472 4.184 15.613.997 2.247 1.766 4.481 2.504 6.825 1.277 3.941 2.866 7.67 4.594 11.433a82 82 0 0 1 1.969 4.817c.839 2.242.839 2.242 2.437 4 2.195 3.201 2.68 6.404 3.5 10.187h2l.383 1.75c1.45 5.285 4.275 9.953 7.617 14.25l1 3a146 146 0 0 0 3 3 217 217 0 0 1 4.063 5.375l2.097 2.836c1.689 2.56 2.828 4.906 3.84 7.789h3l1 3h2l.188 2.188c1.076 3.727 2.96 5.219 5.812 7.812 2.672 2.61 4.926 4.889 7 8h3l.75 2.438L188 575q1.985.558 4 1a89 89 0 0 1 2 4c2.634 2.423 2.634 2.423 6 3v3l2.875.75c3.56 1.424 3.642 1.967 5.125 5.25q1.993.53 4 1a91 91 0 0 1 4 4c2.668 2.391 2.668 2.391 6 3l1 3c2.602 1.648 3.862 2 7 2l1 2a83 83 0 0 0 4.75 2.375c3.001 1.443 5.342 2.7 7.938 4.813 2.292 2.033 2.292 2.033 5.625 2.75 3.22.928 4.973 1.762 7.687 3.562 3.576 2.35 6.835 3.423 11 4.5q2.384.98 4.75 2c4.49 1.85 8.772 2.691 13.55 3.438 2.7.562 4.884 1.421 7.387 2.562 4.986 2.148 9.944 2.728 15.286 3.28 4.166.442 8.059 1.151 12.09 2.283 11.34 3.054 23.608 2.603 35.289 2.567q3.121-.005 6.244.007c7.071.004 14.127-.143 21.19-.52l3.906-.207c3.022-.375 4.735-.89 7.308-2.41a72 72 0 0 1 4.813-1.125l2.457-.508c2.73-.367 2.73-.367 6.039-.242 4.469-.151 7.82-1.383 11.941-3 5.8-2.175 11.286-3.78 17.434-4.691 3.398-.636 6.22-1.92 9.316-3.434v-2l3.313.125c3.776.196 3.776.196 6.687-2.125v-2l1.766-.422c6.132-1.587 11.171-3.944 16.375-7.492C477 610 477 610 479.17 609.476L481 609l1-2c1.848-1.07 1.848-1.07 4.063-2.125l2.222-1.07L490 603v-2l1.676-.27c3.007-.945 5-2.515 7.512-4.418 3.516-2.632 7.043-5.143 10.75-7.5 3.43-2.25 5.53-4.567 8.062-7.812 2.345-1.886 4.739-3.68 7.172-5.45L527 574v-2h2c1.743-1.646 1.743-1.646 3.5-3.75l1.844-2.11c1.536-1.985 2.628-3.859 3.656-6.14h2c2.398-2.637 2.398-2.637 3-6h2c1.816-1.944 1.816-1.944 3.625-4.375l1.914-2.46c1.648-2.006 1.648-2.006 1.461-4.165h2l.25-2.875L555 537c1.938-1.063 1.938-1.063 4-2 1.283-2.538 1.283-2.538 2-5h2q1.259-2.4 2.5-4.812l1.406-2.708c1.296-2.486 1.296-2.486 1.094-5.48l3-1c2.905-4.357 4.096-8.876 5-14h2c1.879-2.818 2.575-4.668 3.438-7.875.844-2.962 1.584-5.162 3.187-7.812 1.583-2.31 1.583-2.31 1.75-5.375.582-3.665 1.47-5.986 3-9.313 2.37-5.473 3.616-10.83 4.498-16.692.567-3.765 1.217-7.465 2.127-11.163 3.295-13.686 3.583-27.04 3.467-41.07-.03-3.826-.021-7.651-.008-11.477-.012-13.38-.618-26.136-3.459-39.223q-.418-2.009-.832-4.017a535 535 0 0 0-1.488-6.874c-.608-2.779-1.122-5.558-1.617-8.359-.85-4.363-2.387-8.226-4.125-12.305-.915-2.385-1.462-4.627-1.938-7.132-.73-3.726-2.044-6.303-4.059-9.485-1.443-2.803-1.87-5.717-2.351-8.812-.712-2.434-1.804-3.252-3.59-5.016-1.168-2.48-1.168-2.48-2.187-5.187l-1.043-2.731L572 280h-2l-.812-2.125c-2.394-5.955-2.394-5.955-6.313-10.937-2.214-2.288-2.529-3.823-2.875-6.938h-2l-.988-1.863-1.324-2.45-1.301-2.425c-1.3-2.121-2.476-3.679-4.387-5.262h-2l-.375-1.812c-.58-2.45-.58-2.45-2.625-5.188h-2l-.687-2.187c-1.582-3.39-3.514-5.355-6.313-7.813l-3-1-.375-1.812c-.909-3.18-3.039-4.248-5.625-6.188l-1-2h-3l-.812-1.812c-1.209-2.227-2.223-3.601-4.188-5.188l-2-.375c-2.954-.923-3.45-3.022-5-5.625-2.376-1.61-2.376-1.61-5-3l-2.687-2.187c-2.086-2.019-2.086-2.019-4.313-1.813l-1-3c-5.053-3.391-5.053-3.391-11-4l-.258-1.89c-.535-2.238-.535-2.238-2.484-3.157l-2.133-.703-2.117-.734c-2.147-.64-2.147-.64-5.008-.516l-.2-1.867c-.612-2.331-.612-2.331-2.945-3.328l-2.668-.93c-3.186-1.14-6.171-2.344-9.187-3.875a482 482 0 0 0-5.687-2.375 242 242 0 0 1-11.25-4.937c-3.148-1.425-5.55-2.141-9.063-1.688v-2c-3.67-1.72-7.028-2.295-11.043-2.727-2.79-.39-5.297-1.352-7.957-2.273-7.597-2.272-14.853-3.407-22.773-3.79-3.14-.204-6.126-.69-9.227-1.21-23.794-2.132-48.845-2.345-72.312 2.438" id="svg-layer-2" style="pointer-events: all;"/><path d="m632 124 3 1c1.48 3.978 1.162 8.239 1.168 12.43l.01 2.505q.007 2.63.007 5.26c.002 2.636.02 5.271.04 7.907.065 19.856-3.187 37.608-10.963 55.894-1.506 3.585-2.9 7.209-4.27 10.848C620 222 620 222 618.445 224.059c-1.704 2.047-1.704 2.047-2.445 5.504-1.019 3.502-1.535 4.07-4 6.437-1.138 2.292-2.056 4.617-3 7h-2l-.812 2.188c-1.742 4.123-3.69 7.923-7.188 10.812h-2l-1 4h-2l-2 6h-8c-4-6.75-4-6.75-4-9l-1.812-1.812c-2.245-2.245-3.583-4.467-5.188-7.188l-1.5-1.5c-2.982-2.982-4.735-6.37-5.5-10.5h-3l-1-3-2.437-1.812c-3.022-2.58-3.357-4.491-4.563-8.188a90 90 0 0 0-4-2c-1.25-2.625-1.25-2.625-2-5h-2v-2l-2.187-.687c-3.377-1.576-5.37-3.522-7.813-6.313v-2h-2v-2h-2a181 181 0 0 1-4-4l-3-2v-2l-6-2v-2h-2a283 283 0 0 1-5-5l-2-1v-2l-4-1v-2h-3l-1-3 3-1 1.387-1.531c2.152-1.96 3.552-1.863 6.426-1.969 3.239-.12 5.115-.464 8.046-1.937 3.545-1.764 6.685-2.393 10.578-3.063 3.983-.686 7.594-1.415 11.274-3.07 2.848-1.238 4.465-1.745 7.476-1.805 4.912-.42 8.816-2.174 13.29-4.164 4.941-2.049 10.008-3.649 15.117-5.23 4.905-1.565 8.996-3.571 13.406-6.231a114 114 0 0 1 13-5v-2l6-1v-2c6.476-3.81 6.476-3.81 9.75-5 2.7-1.2 3.517-2.665 5.25-5 2.125-.625 2.125-.625 4-1z" id="svg-layer-3" style="pointer-events: all;"/><path fill="#FCFCFC" d="M235 484c7.716.594 13.744 4.563 19 10a402 402 0 0 0 6 3l1.5 1.563c1.552 1.692 1.552 1.692 4.5 2.437 3.1 1.033 3.797 1.782 6 4 1.808 1.08 1.808 1.08 3.8 1.973l2.214 1.037 2.298 1.053c.748.35 1.495.702 2.264 1.064 4.08 1.895 8.12 3.54 12.424 4.873l3.063 1.063A60 60 0 0 0 306 518v2l3.188-.125C313 520 313 520 315.25 520.941c3.465 1.334 6.899 1.725 10.563 2.121l4.082.473 1.807.2c2.024.233 4.043.507 6.061.786 4.045.506 8.058.624 12.132.612l2.163.003q2.24 0 4.48-.006 3.429-.005 6.858.007 2.187 0 4.374-.004l3.987-.004c3.256.021 3.256.021 6.243-1.129l3.152.063c4.404-.072 8.175-.949 12.41-2.063 4.93-1.29 9.287-2.26 14.438-2v-2l2.613-.36c8.787-1.662 17.13-5.858 25.145-9.722C438 507 438 507 441 507l1-2 2 1v-2l1.582-.812a100.6 100.6 0 0 0 12.856-8.125C472.89 484.43 472.89 484.43 478 484.938c3 1.062 3 1.062 5 4.062v3h-2l-.75 3c-2.017 6.967-4.892 12.043-10.25 17l-2.187 2.813L466 517h-2l-.687 1.625c-3.4 6.152-8.16 11.061-14.313 14.375h-2l-1 4h-2l-1 2-3 1-1.25 1.375C437 543 437 543 433.625 544.438c-3.61 1.338-3.61 1.338-6 3.625-2.645 1.952-3.811 2.308-6.937 2.875-3.499.636-5.775 1.59-8.688 3.625-3.665 2.512-6.617 3.05-11.02 3.199-2.3.125-2.3.125-4.98 2.238-2.687.125-2.687.125-5 0v2c-3.503.761-6.92 1.224-10.492 1.5l-3.137.25-3.246.25c-8.019.592-8.019.592-15.988 1.617-3.406.416-6.079.109-9.45-.492-6.582-1.062-13.07-1.498-19.733-1.695-3.802-.148-5.718-.273-8.954-2.43a75 75 0 0 0-5-1v-2l-2.125-.043c-6.136-.308-9.92-1.178-14.895-4.758-2.859-1.731-5.723-2.169-9-2.644-2.417-.678-3.437-1.598-4.98-3.555v-2l-2.187-.25c-3.393-.905-5.152-2.498-7.813-4.75a89 89 0 0 0-4-2c-3-2-3-2-4-5a196 196 0 0 0-5.285-2.957c-2.183-1.328-3.358-2.9-4.715-5.043l-2-2 1-2-2.375-.687c-3.302-1.651-3.441-2.93-4.625-6.313l-3-2v-3h-2l-.812-1.812c-1.03-2.203-1.03-2.203-2.668-3.473-2.581-2.912-2.856-6.595-3.676-10.317L235 491l-3-1v-3h2z" id="svg-layer-4" style="pointer-events: all;"/><path d="m89 131 10 3v2h3l1 2c1.979.727 3.98 1.398 6 2v2l5 1v2l10 3v2l3.563.813c4.022 1 7.628 2.545 11.437 4.187 2.456.765 4.926 1.47 7.398 2.18 2.596.818 5.04 1.81 7.54 2.882 4.475 1.854 8.82 2.744 13.59 3.508 3.899.678 7.465 2.055 11.16 3.43 3.873 1.17 7.733 1.811 11.726 2.438 2.586.562 2.586.562 4.504 1.59 2.91 1.359 5.576 1.366 8.77 1.535 6.213.338 6.213.338 7.312 1.437.04 1.666.043 3.334 0 5l-5 1v2c-4.585 4.854-10.175 8.636-15.703 12.324-2.348 1.713-4.26 3.61-6.297 5.676l-3 2-.875 2.063C179 206 179 206 176.375 206.75L174 207l-1 4-1.875.25c-2.265.543-2.265.543-3.187 2.563L167 216c-1.5 2.25-1.5 2.25-3 4h-2v3a87 87 0 0 1-4 4 323 323 0 0 0-4.437 5.375l-2.383 2.934L149 238c-4.586 5.635-4.586 5.635-7.125 7.875-1.885 2.137-2.427 3.417-3.312 6.063-1.352 4.01-3.39 6.224-6.563 9.062l-1 2c-3.95-.564-6.868-1.477-10-4-.812-3.187-.812-3.187-1-6h-2c-2.54-2.614-3.923-4.129-4.25-7.812L114 243l-3-1c-1.835-2.947-3.445-5.887-4.992-8.988a159 159 0 0 0-2.043-3.942c-2.142-4.054-3.452-7.457-3.965-12.07a519 519 0 0 0-1-5h-2c-.676-2.54-1.34-5.081-2-7.625l-.578-2.16C93.35 198.042 92.78 194.348 93 190h-2c-5.537-40.803-5.537-40.803-3-58z" id="svg-layer-5" style="pointer-events: all;"/><path fill="#FDFDFD" d="m243.375 334.125 3.191.11c5.342.257 9.003.55 13.434 3.765 2.774.85 5.555 1.498 8.379 2.156 2.767.891 4.343 2.077 6.621 3.844a89 89 0 0 0 4.938 1.938c3.974 1.523 6.848 3.226 10.062 6.062l1.883.941c5.787 2.894 10.202 6.97 14.117 12.059q1.599 1.375 3.25 2.688L312 370v2l3 1c1.188 2.562 1.188 2.562 2 5h2l1.625 3c2.073 3.69 4.58 6.871 7.3 10.105C329 393 329 393 328.669 395.238L328 397c-4.655.838-8.37 1.016-13 0v4l2 1c-.111 4.125-.242 8.25-.375 12.375-.03 1.156-.062 2.313-.094 3.504-.234 6.901-.898 13.406-2.531 20.121h-2l.25 2.063c-.445 5.23-2.984 8.825-6.812 12.187L303 454l-1.625 1.688c-4.105 3.918-11.815 2.606-17.164 2.546-4.597-.158-8.106-1.138-12.211-3.234v-3l-3 1c-1.994-1.994-2.757-3.513-4-6l-1.625-2.125C262 443 262 443 262 441h-2c-3.68-18.884-3.68-18.884-3-27l.316-3.844c.715-7.386 1.47-14.82 5.684-21.156l2-1a78 78 0 0 0 2-5h2v-2h3v-3c1.875-1.062 1.875-1.062 4-2l2 1-1-5-2.078-.383c-7.188-1.518-14.315-3.653-21.235-6.117-4.238-1.46-8.572-2.44-12.937-3.437-22.433-5.177-22.433-5.177-28.75-11.063-1.125-2.5-1.125-2.5-1-5 1.063-2.687 1.063-2.687 3-5 3.188-1.312 3.188-1.312 6-2v-2c8.003-2.682 14.978-3.358 23.375-2.875M501 341c1.67 2.978 2 4.586 2 8l-3 2-1 3c-6.173 3.385-13.387 3.55-20.25 3.938-8.818.619-16.468 1.852-24.75 5.062l-3 1v2l-3.187.75c-3.655 1.017-5.871 2.865-8.813 5.25h-4l.938 1.813C437 376 437 376 438 379h3v2l1.809.809c4.972 2.703 8.09 7.186 9.816 12.503l.603 2.197c.767 2.476 1.762 4.704 2.842 7.057 2.332 5.756 2.393 10.92 2.18 17.059l-.055 3.043A487 487 0 0 1 458 431h-2l-1 7h-2l-.312 3.125c-.688 3.872-1.625 6.543-3.688 9.875l-3 1-.883 1.93c-1.517 2.811-3.022 3.146-5.992 4.195-3.665 1.307-3.665 1.307-7.148 3.016-2.492 1.083-4.059.876-6.727.484l-2.422-.336L421 461v-2l-3.187-.625c-5-1.417-7.248-4.628-9.79-9.09-1.45-3.239-2.503-6.597-3.586-9.973-1.129-4.503-1.129-4.503-3.437-8.312a168 168 0 0 1-.098-7.316l.005-2.216c.005-2.343.018-4.687.03-7.03q.009-2.379.014-4.756.017-5.841.049-11.682l-2.773.105-3.602.082-3.586.106L388 398c-1.93-2.895-2.535-4.389-2.46-7.82 1.013-4.795 3.761-9.139 6.46-13.18l2-1 1.375-2.312C397 371 398.717 369.136 401 367l2-2c2.625-.625 2.625-.625 5-1v-3c4.222-3 4.222-3 7-3l1-3c1.777-1.168 1.777-1.168 3.938-2.187l2.152-1.043C424 351 424 351 426 351l1-3c2.477-1.281 2.477-1.281 5.625-2.5 1.093-.43 2.186-.859 3.313-1.3 1.01-.397 2.02-.792 3.062-1.2l3.625-1.687c3.582-1.393 6.966-2.09 10.75-2.688 2.783-.564 2.783-.564 5.758-2.133 4.76-2.113 9.6-2.172 14.742-2.367l2.855-.18c9.094-.402 16.783 1.86 24.27 7.055" id="svg-layer-6" style="pointer-events: all;"/></svg>